<?xml version="1.0" encoding="UTF-8"?>
<svg id="Capa_2" data-name="Capa 2" xmlns="http://www.w3.org/2000/svg" viewBox="0 0 251.23 257.66">
  <defs>
    <style>
      .cls-1 {
        fill: #4a0019;
      }
    </style>
  </defs>
  <g id="Capa_1-2" data-name="Capa 1">
    <g>
      <path class="cls-1" d="M105.97,12.89c.01-5.97,3-10.56,10.81-10.54V.05S89.23,0,89.23,0c-1.39,0-2.29.57-2.88,1.45C85.75.57,84.85,0,83.47,0l-27.55.05v2.3c7.81-.01,10.8,4.57,10.81,10.54C66.79,47.79-.04,40.56,0,61.68c.03,14.01,27.34,10.05,46.23,44,4.38,7.8,7.15,19.04,10.85,32.36,2.86,10.05,5.74,23.2,15.33,24.42v.07s.91,0,.91,0c.19,0,.37.05.56.05l12.47-.02,12.47.02c.2,0,.37-.04.56-.05h.91s0-.07,0-.07c9.59-1.21,12.47-14.36,15.33-24.42,3.7-13.31,6.47-24.56,10.85-32.36,18.89-33.95,46.2-30,46.23-44,.04-21.12-66.79-13.9-66.73-48.79ZM107.87,105.19c-9.44,15.14-9.23,27.77-15.69,43.14-1.43,3.35-3.26,6.06-5.83,8.05-2.57-1.99-4.41-4.71-5.83-8.05-6.46-15.37-6.25-28-15.69-43.14C42.03,68.73,2.32,75.23,2.3,61.68c-.03-15.24,74.42-10.95,84.05-47.47,9.64,36.52,84.08,32.23,84.05,47.47-.02,13.55-39.73,7.05-62.53,43.51Z"/>
      <path class="cls-1" d="M145.26,244.77c-.01,5.97-3,10.56-10.81,10.54v2.3s27.55.05,27.55.05c1.39,0,2.29-.57,2.88-1.45.6.87,1.49,1.45,2.88,1.45l27.55-.05v-2.3c-7.81.01-10.8-4.57-10.81-10.54-.06-34.9,66.76-27.67,66.73-48.79-.03-14.01-27.34-10.05-46.23-44-4.38-7.8-7.15-19.04-10.85-32.36-2.86-10.05-5.74-23.2-15.33-24.42v-.07s-.91,0-.91,0c-.19,0-.37-.05-.56-.05l-12.47.02-12.47-.02c-.2,0-.37.04-.56.05h-.91s0,.07,0,.07c-9.59,1.21-12.47,14.36-15.33,24.42-3.7,13.31-6.47,24.56-10.85,32.36-18.89,33.95-46.2,30-46.23,44-.04,21.12,66.79,13.9,66.73,48.79ZM143.36,152.46c9.44-15.14,9.23-27.77,15.69-43.14,1.43-3.35,3.26-6.06,5.83-8.05,2.57,1.99,4.41,4.71,5.83,8.05,6.46,15.37,6.25,28,15.69,43.14,22.8,36.47,62.51,29.97,62.53,43.51.03,15.24-74.42,10.95-84.05,47.47-9.64-36.52-84.08-32.23-84.05-47.47.02-13.55,39.73-7.05,62.53-43.51Z"/>
    </g>
  </g>
</svg>